# xmcd CD database file
#
# Track frame offsets:
#	187
#	16457
#	41597
#
# Disc length: 770 seconds
#
# Revision: 0
# Processed by: cddbd v1.5.1PL0 Copyright (c) Steve Scherf et al.
# Submitted via: CDex 1.50beta10
#
DISCID=1c030003
DTITLE=高橋　由美子 - 笑ってるだけじゃない
DYEAR=1997
DGENRE=JPop
TTITLE0=笑ってるだけじゃない
TTITLE1=Cotton Time
TTITLE2=笑ってるだけじゃない（カラオケ）
EXTD=YEAR: 1997
EXTT0=
EXTT1=
EXTT2=
PLAYORDER=
